<?xml version="1.0" ?><svg style="enable-background:new 0 0 24 24;" version="1.1" viewBox="0 0 24 24" xml:space="preserve" xmlns="http://www.w3.org/2000/svg" xmlns:xlink="http://www.w3.org/1999/xlink"><style type="text/css">
	.st0{display:none;}
	.st1{display:inline;}
	.st2{opacity:0.2;fill:none;stroke:#000000;stroke-width:5.000000e-02;stroke-miterlimit:10;}
</style><g class="st0" id="grid_system"/><g id="_icons"><path d="M19,4h-2H6.6C5.2,4,4,4.9,3.7,6.3l-1,4c-0.2,0.9,0,1.8,0.5,2.6C3.8,13.6,4.6,14,5.6,14h2.8l-0.7,1.5   C7.2,16.3,7,17.3,7,18.2c0,0.9,0.5,1.7,1.3,2l0.4,0.2c0.3,0.2,0.7,0.2,1,0.2c0.6,0,1.3-0.3,1.7-0.8l5.1-6C16.7,14,16.8,14,17,14h2   c1.7,0,3-1.3,3-3V7C22,5.3,20.7,4,19,4z M16,11.5l-6.1,7.1c-0.1,0.1-0.2,0.1-0.3,0.1l-0.4-0.2c-0.1,0-0.2-0.1-0.2-0.3   c0-0.6,0.2-1.3,0.4-1.8l1.5-2.9c0.2-0.3,0.1-0.7,0-1C10.7,12.2,10.3,12,10,12H5.6c-0.3,0-0.6-0.1-0.8-0.4c-0.2-0.2-0.3-0.6-0.2-0.9   l1-4C5.7,6.3,6.1,6,6.6,6H16V11.5z M20,11c0,0.6-0.4,1-1,1h-1v-0.2V6h1c0.6,0,1,0.4,1,1V11z"/></g></svg>